<?xml version="1.0" encoding="UTF-8"?>
<svg xmlns="http://www.w3.org/2000/svg" viewBox="200 120 400 400" role="img" aria-label="Zenala">
<g fill="none" stroke="#1a1914" stroke-width="15.5" stroke-linecap="round" stroke-linejoin="round">
<path d="M353.93,146.07 L362.59,143.98 L371.34,142.32 L380.16,141.11 L389.03,140.34 L397.93,140.01 L406.83,140.13 L415.72,140.70 L424.57,141.70 L433.35,143.15 L442.06,145.04 L450.65,147.36 L459.12,150.11 L467.45,153.27 L475.60,156.85 L483.57,160.84 L491.32,165.21 L498.85,169.97 L506.13,175.10 L513.14,180.58 L519.87,186.42 L526.30,192.58 L532.42,199.05 L538.20,205.82 L543.64,212.87 L548.72,220.19 L553.42,227.75 L557.74,235.53 L561.67,243.53 L565.19,251.70 L568.30,260.05 L570.99,268.54 L573.25,277.15 L575.08,285.87 L576.46,294.66 L577.41,303.52 L577.91,312.41 L577.97,321.31 L577.58,330.21 L576.75,339.08 L575.47,347.89 L573.76,356.63 L571.61,365.27 L569.03,373.79 L566.03,382.18 L562.61,390.40 L558.79,398.44 L554.57,406.28 L549.96,413.90 L544.97,421.28 L539.63,428.40 L533.93,435.25 L527.90,441.80 L521.55,448.04 L514.89,453.96 L507.95,459.53 L500.73,464.75 L493.27,469.61 L485.57,474.08 L477.66,478.17 L469.55,481.85 L461.27,485.12 L452.83,487.98 L444.27,490.41 L435.59,492.41 L426.82,493.97 L417.99,495.09 L409.11,495.77 L400.21,496.00 L391.30,495.79 L382.42,495.13 L373.59,494.03 L364.82,492.49 L356.13,490.51 L347.56,488.10 L339.12,485.27 L330.83,482.01 L322.72,478.35 L314.79,474.28 L307.08,469.82 L299.61,464.99 L292.38,459.78 L285.43,454.22 L278.76,448.32 L272.39,442.10 L266.34,435.56 L260.63,428.73 L255.27,421.62 L250.27,414.25 L245.64,406.64 L241.40,398.81"/>
<path d="M252.00,258.67 C256.74,259.65 261.48,260.57 266.22,261.40 C270.96,262.14 275.70,262.76 280.44,263.27 C285.19,263.64 289.93,263.87 294.67,263.97 C299.41,263.92 304.15,263.72 308.89,263.40 C313.63,262.94 318.37,262.36 323.11,261.68 C327.85,260.90 332.59,260.04 337.33,259.12 C342.07,258.16 346.81,257.18 351.56,256.19 C356.30,255.23 361.04,254.29 365.78,253.42 C370.52,252.62 375.26,251.92 380.00,251.32 C384.74,250.84 389.48,250.49 394.22,250.28 C398.96,250.22 403.70,250.31 408.44,250.55 C413.19,250.94 417.93,251.47 422.67,252.14 C427.41,252.94 432.15,253.85 436.89,254.86 C441.63,255.96 446.37,257.12 451.11,258.34 C455.85,259.58 460.59,260.82 465.33,262.06 C470.07,263.27 474.81,264.42 479.56,265.51 C484.30,266.51 489.04,267.40 493.78,268.19 C498.52,268.85 503.26,269.38 508.00,269.77"/>
<path d="M250.00,292.02 C254.70,292.55 259.41,292.97 264.11,293.26 C268.81,293.41 273.52,293.44 278.22,293.32 C282.93,293.08 287.63,292.70 292.33,292.21 C297.04,291.61 301.74,290.91 306.44,290.13 C311.15,289.28 315.85,288.37 320.56,287.44 C325.26,286.49 329.96,285.54 334.67,284.62 C339.37,283.75 344.07,282.93 348.78,282.19 C353.48,281.54 358.19,281.00 362.89,280.58 C367.59,280.29 372.30,280.13 377.00,280.11 C381.70,280.24 386.41,280.51 391.11,280.92 C395.81,281.46 400.52,282.13 405.22,282.92 C409.93,283.81 414.63,284.79 419.33,285.85 C424.04,286.96 428.74,288.12 433.44,289.29 C438.15,290.46 442.85,291.62 447.56,292.74 C452.26,293.80 456.96,294.80 461.67,295.70 C466.37,296.51 471.07,297.21 475.78,297.78 C480.48,298.23 485.19,298.54 489.89,298.72 C494.59,298.76 499.30,298.67 504.00,298.46"/>
<path d="M262.00,318.73 C266.33,319.58 270.67,320.38 275.00,321.10 C279.33,321.72 283.67,322.25 288.00,322.66 C292.33,322.95 296.67,323.11 301.00,323.15 C305.33,323.06 309.67,322.85 314.00,322.52 C318.33,322.07 322.67,321.52 327.00,320.88 C331.33,320.15 335.67,319.37 340.00,318.54 C344.33,317.67 348.67,316.79 353.00,315.92 C357.33,315.07 361.67,314.26 366.00,313.50 C370.33,312.83 374.67,312.23 379.00,311.74 C383.33,311.37 387.67,311.11 392.00,310.98 C396.33,310.99 400.67,311.13 405.00,311.41 C409.33,311.82 413.67,312.35 418.00,313.01 C422.33,313.78 426.67,314.65 431.00,315.60 C435.33,316.62 439.67,317.70 444.00,318.82 C448.33,319.95 452.67,321.08 457.00,322.20 C461.33,323.29 465.67,324.32 470.00,325.29 C474.33,326.17 478.67,326.96 483.00,327.65 C487.33,328.22 491.67,328.67 496.00,328.99"/>
<path d="M288.00,351.38 C291.52,351.75 295.04,352.02 298.56,352.18 C302.07,352.23 305.59,352.17 309.11,351.99 C312.63,351.71 316.15,351.33 319.67,350.85 C323.19,350.29 326.70,349.65 330.22,348.96 C333.74,348.22 337.26,347.45 340.78,346.66 C344.30,345.88 347.81,345.11 351.33,344.37 C354.85,343.68 358.37,343.05 361.89,342.50 C365.41,342.03 368.93,341.66 372.44,341.40 C375.96,341.25 379.48,341.22 383.00,341.31 C386.52,341.52 390.04,341.84 393.56,342.29 C397.07,342.84 400.59,343.49 404.11,344.24 C407.63,345.06 411.15,345.95 414.67,346.89 C418.19,347.87 421.70,348.87 425.22,349.88 C428.74,350.88 432.26,351.85 435.78,352.78 C439.30,353.66 442.81,354.47 446.33,355.19 C449.85,355.83 453.37,356.37 456.89,356.80 C460.41,357.12 463.93,357.33 467.44,357.43 C470.96,357.42 474.48,357.30 478.00,357.08"/>
<path d="M322.00,376.61 C324.33,377.17 326.67,377.68 329.00,378.12 C331.33,378.49 333.67,378.77 336.00,378.98 C338.33,379.09 340.67,379.12 343.00,379.05 C345.33,378.90 347.67,378.66 350.00,378.35 C352.33,377.96 354.67,377.51 357.00,377.00 C359.33,376.45 361.67,375.87 364.00,375.27 C366.33,374.66 368.67,374.05 371.00,373.47 C373.33,372.92 375.67,372.41 378.00,371.95 C380.33,371.56 382.67,371.24 385.00,371.01 C387.33,370.86 389.67,370.81 392.00,370.86 C394.33,371.00 396.67,371.24 399.00,371.58 C401.33,372.00 403.67,372.52 406.00,373.11 C408.33,373.78 410.67,374.50 413.00,375.28 C415.33,376.10 417.67,376.94 420.00,377.80 C422.33,378.65 424.67,379.50 427.00,380.32 C429.33,381.10 431.67,381.84 434.00,382.52 C436.33,383.13 438.67,383.67 441.00,384.13 C443.33,384.50 445.67,384.78 448.00,384.97"/>
</g>
</svg>